<svg width="24" height="24" viewBox="0 0 24 24" fill="none" xmlns="http://www.w3.org/2000/svg">
<path d="M12.819 14.427C12.883 14.694 12.896 15.106 12.798 15.375C12.67 15.726 12.417 15.903 12.044 15.903H11.407V13.783H11.903C12.377 13.783 12.706 13.956 12.819 14.427V14.427ZM15.91 5.777C17.957 5.298 20.715 6.056 22 6.956C20.506 4.959 16.77 1.248 14.568 0.074C15.725 1.242 16.131 4.309 15.91 5.777V5.777ZM8.453 13.732H7.907V14.675H8.453C8.688 14.675 8.92 14.648 9.029 14.448C9.096 14.325 9.096 14.082 9.029 13.959C8.92 13.761 8.688 13.732 8.453 13.732V13.732ZM22 11V24H2V0H10.409C15.267 0 13.743 8 13.743 8C16.754 7.255 22 7.58 22 11ZM9.892 13.761C9.732 13.277 9.286 13 8.668 13H7V16.686H7.907V15.409H8.668C9.287 15.409 9.732 15.132 9.892 14.646C9.986 14.354 9.986 14.049 9.892 13.761V13.761ZM13.299 13.458C13.002 13.159 12.588 13 12.1 13H10.501V16.686H12.1C12.637 16.686 13.061 16.505 13.362 16.151C13.916 15.492 13.948 14.116 13.299 13.458V13.458ZM17 13H14.372V16.686H15.279V15.214H16.769V14.482H15.279V13.784H17V13V13Z" fill="white"/>
</svg>
